<svg xmlns="http://www.w3.org/2000/svg" width="1092.328" height="138.484" viewBox="0 0 1092.328 138.484"><defs><clipPath id="a"><path data-name="Rectangle 8" fill="none" d="M0 0h1092.328v138.484H0z"/></clipPath></defs><g data-name="Group 1" clip-path="url(#a)"><path data-name="Path 1" d="M0-.001v68.342c0-17.952 10.472-33.8 26.446-43.3a15.32 15.32 0 0 1 3.107 11.158c-.919 7.463-2.106 14.91-3.469 22.316a61.318 61.318 0 0 1-4.953 14.934c-3.433 6.861 1.05 14.934 9.958 16.7a15.479 15.479 0 0 0 14.294-4.45 10.815 10.815 0 0 0 1.8-12.252 61.405 61.405 0 0 1-4.951-14.934c-.027-.137-.051-.276-.078-.413C38.19 36.47 57.87 16.959 83.375 16.959h114.409c3.52 0 6.223 2.683 5.714 5.674v.021a70.68 70.68 0 0 1-4.953 16.188c-3.178 6.882 1.553 14.778 10.466 16.272 5.2.871 10.694-.979 13.812-4.655a10.676 10.676 0 0 0 1.771-11.617 70.57 70.57 0 0 1-4.953-16.188l-.009-.057c-.5-2.972 2.181-5.638 5.679-5.638h149.721c15.144 0 27.088 10.981 26.173 23.96q-.526 7.471-1.189 14.938c-2.031 19.721-2.872 38.98-11.378 57.92-3.537 7.806.968 16.6 10.06 19.633 14.1 4.895 28.539-7.679 22.867-19.635-8.506-18.936-9.35-38.2-11.38-57.918l-.033-.387c-1.818-20.786 17.334-38.511 41.61-38.511h131.306c12.365 0 22.028 9.226 20.661 19.778q-.686 5.29-1.491 10.569a71.022 71.022 0 0 1-4.079 14.936c-2.246 5.442 1.462 11.455 8.213 12.795 4.689.932 9.74-.878 12.226-4.419a8.6 8.6 0 0 0 1.021-8.376 71.034 71.034 0 0 1-4.081-14.936q-1.1-6.988-1.935-13.993c-1.054-8.732 6.859-16.352 17.086-16.354h160.54v.995a1.049 1.049 0 0 1 1.121-.995c8.326 0 14.8 6.221 13.863 13.322l-.011.069a30.214 30.214 0 0 1-5.013 13.393c-4.006 5.72-1.085 13.359 6.675 15.719a13.918 13.918 0 0 0 13.266-2.889 9.613 9.613 0 0 0 1.518-12.831 30.266 30.266 0 0 1-5.013-13.393l-.016-.133c-.925-7.069 5.517-13.258 13.8-13.258H966.8c25.9 0 46.681 18.362 45.942 40.588l-.007.242c-1.427 22.581.442 45.622-8.513 67.33-2.239 5.085.752 10.767 6.678 12.688 9.01 3.106 18.379-5.047 14.78-12.69-4.667-10.986-6.294-22.213-7.024-33.664-1.163-22.436-2.108-44.873-2.184-67.33v-.07c-.038-4.794 5.508-8.494 11.393-6.575 4.773 1.555 7.064 6.257 5.493 10.426q-.22.58-.455 1.155a14.75 14.75 0 0 1-3.393 4.194 11.75 11.75 0 0 0 .036 18.393c14.576 11.749 35.15-5.893 21.424-18.393a15.493 15.493 0 0 1-5.013-8.387l-.018-.08c-.881-4.068 2.756-7.825 7.576-7.825h17.046c7.949 1.524 15.315-6.053 21.768-16.96Z" fill="#643b1d"/><path data-name="Path 2" d="M396.811 113.035c-4.638 9.329 2.1 17.028 13.863 14.649a14.119 14.119 0 0 1-7.627 1.595c-9.507-.737-12.319-10.655-6.236-16.243" fill="#fff"/><path data-name="Path 3" d="M805.638 44.168c-3.48 6.825 1.64 12.661 10.264 10.847a10.556 10.556 0 0 1-5.646 1.179c-7.022-.5-9.114-7.945-4.618-12.027" fill="#fff"/><path data-name="Path 4" d="M1009.809 122.879c-3.48 6.825 1.64 12.661 10.264 10.847a10.555 10.555 0 0 1-5.646 1.179c-7.022-.5-9.114-7.945-4.618-12.027" fill="#fff"/><path data-name="Path 5" d="M1033.566 35.925c-4.205 8.292 1.971 15.334 12.443 13.149a12.688 12.688 0 0 1-6.846 1.431c-8.533-.661-11.056-9.563-5.6-14.58" fill="#fff"/><path data-name="Path 6" d="M603.769 59.996c-3.375 6.612 1.591 12.276 9.951 10.512a10.2 10.2 0 0 1-5.475 1.145c-6.808-.49-8.837-7.7-4.476-11.661" fill="#fff"/><path data-name="Path 7" d="M205.378 34.482c-4.638 9.329 2.1 17.028 13.863 14.649a14.119 14.119 0 0 1-7.627 1.595c-9.507-.744-12.319-10.661-6.236-16.244" fill="#fff"/><path data-name="Path 8" d="M27.893 70.475c-4.635 9.329 2.099 17.028 13.865 14.648a14.119 14.119 0 0 1-7.627 1.595c-9.507-.737-12.319-10.655-6.236-16.243" fill="#fff"/></g></svg>